<?xml version="1.0" standalone="yes"?>
<svg xmlns="http://www.w3.org/2000/svg" width="312" height="312">
<path style="fill:#ffffff; stroke:none;" d="M0 0L0 312L312 312L312 0L0 0z"/>
<path style="fill:#ffb86c; stroke:none;" d="M41 99C24.6023 107.253 48.6245 121.294 58 124C54.9762 125.366 50.7716 126.424 48.8356 129.34C46.793 132.417 48.7973 136.347 50.6489 139C55.3973 145.804 63.2994 150.549 71 153.302C86.5294 158.854 103.656 160.317 120 161.039C133.256 161.625 145.798 162.451 159 160C158.958 144.796 152.775 127.945 146.988 114C144.408 107.78 141.286 100.868 135.91 96.5571C130.182 91.9634 121.872 89.6325 115 87.3333C101.149 82.6996 87.0348 79.0105 73 75C62.0972 71.8845 51.0002 69.3766 40 66.6265C36.9168 65.8557 30.5226 62.965 27.6034 65.0671C25.0936 66.8744 25.8919 72.3767 26.1736 75C27.1848 84.4164 32.4933 94.494 41 99z"/>
<path style="fill:#ffffff; stroke:none;" d="M32 72C37.9418 100.711 69.819 105.287 94 112.14C100.17 113.889 109.694 114.565 114.725 118.703C118.495 121.803 119.997 127.883 122.453 132C128.862 142.745 138.968 152.855 152 154C149.692 142.818 146.454 131.677 142.424 121C140.05 114.713 137.618 108.012 132.815 103.108C126.033 96.1847 113.054 93.4475 104 90.7199C88.4397 86.0324 72.7672 81.5694 57 77.6265C48.818 75.5805 40.4204 72.6878 32 72z"/>
<path style="fill:#ffb86c; stroke:none;" d="M177 80.5332C165.714 83.2774 167 93.8206 167 103L167 148C167 153.998 168.021 161.257 162.867 165.566C156.571 170.83 141.769 168 134 168L59 168C49.4991 168 30.7856 164.26 25.1397 174.043C23.1749 177.448 21.5414 184.384 26.1481 186.397C30.6877 188.38 38.1174 187 43 187L81 187L226 187L268 187C273.145 187 281.074 188.483 285.852 186.397C290.586 184.33 289 176.135 289 172C289 158.446 291.203 146.35 280.996 136C268.751 123.582 256.332 111.332 244 99C238.325 93.3252 232.342 85.076 225 81.5725C220.414 79.3843 214.931 80 210 80C199.641 80 187.088 78.0802 177 80.5332z"/>
<path style="fill:#ffffff; stroke:none;" d="M189.015 95.5725C179.474 98.3982 182.96 116.319 183.001 124C183.02 127.713 182.951 131.781 186.228 134.258C190.036 137.135 196.525 136 201 136L230 136C234.296 136 239.9 136.911 243.956 135.258C257.112 129.896 239.438 115.6 235.039 111C230.554 106.309 226.673 100.234 221 96.858C215.059 93.3216 205.655 94.9996 199 95C195.755 95.0002 192.166 94.6394 189.015 95.5725M43 106C48.0353 112.822 56.3021 116.794 64 119.988C79.7986 126.544 97.9047 131.649 115 133C111.919 122.306 104.681 121.79 95 119C78.1776 114.152 60.5736 106 43 106M55 132C58.4603 140.858 68.3171 145.637 77 148.14C95.4963 153.471 114.826 155 134 155C130.159 150.559 124.932 143.91 119.83 141.024C114.54 138.031 105.943 138.169 100 136.999C89.6452 134.962 78.4746 129.764 68 129.275C63.6183 129.07 59.2153 131.034 55 132z"/>
<path style="fill:#414242; stroke:none;" d="M23 185C23 191.775 21.5202 201.044 25.7276 206.892C31.9931 215.601 50.6632 212 60 212C63.4326 212 67.5605 212.604 70.8958 211.682C75.1304 210.511 77.3495 205.053 80.1736 202.04C85.5098 196.347 93.1305 192.486 101 192.105C109.263 191.704 117.374 196.168 122.907 202.015C125.533 204.791 127.6 209.842 131.21 211.397C135.284 213.151 141.637 212 146 212C156.859 212 168.169 212.919 178.981 211.941C184.424 211.449 186.551 205.579 190.04 202.015C195.489 196.45 202.998 192.079 211 192.079C219.198 192.078 227.26 196.234 232.816 202.09C235.374 204.787 237.087 209.029 240.326 210.972C243.48 212.865 248.476 212 252 212C261.105 212 278.768 215.4 285.431 207.775C290.564 201.903 289 192.187 289 185C281.554 188.155 272.954 187 265 187L221 187L84 187L45 187C37.6028 187 29.9278 187.936 23 185M97 196.518C92.0924 197.563 86.8538 199.819 83.2099 203.329C64.872 220.993 82.6207 252.539 107 247.331C110.967 246.484 114.768 245.024 117.96 242.468C138.184 226.268 122.948 190.992 97 196.518M207 196.465C203.007 197.188 199.329 198.71 196.015 201.055C173.961 216.655 189.627 252.498 216 247.532C219.545 246.865 222.968 245.467 225.961 243.451C248.251 228.44 233.589 191.647 207 196.465z"/>
<path style="fill:#ffffff; stroke:none;" d="M98.0039 210.653C83.2372 215.311 90.2129 237.613 104.999 233.427C120.287 229.099 112.798 205.986 98.0039 210.653M207.004 210.742C192.209 216.447 201.501 238.936 215.996 232.991C230.239 227.149 221.077 205.316 207.004 210.742z"/>
</svg>
